<svg xmlns="http://www.w3.org/2000/svg" xmlns:xlink="http://www.w3.org/1999/xlink" version="1.1" class="marks" width="990" height="528" viewBox="0 0 990 528"><rect width="990" height="528" fill="white"/><g fill="none" stroke-miterlimit="10" transform="translate(83,51)"><g class="mark-group role-frame root" role="graphics-object" aria-roledescription="group mark container"><g transform="translate(0,0)"><path class="background" aria-hidden="true" d="M0.5,0.5h900v440h-900Z" stroke="#ddd"/><g><g class="mark-group role-axis" aria-hidden="true"><g transform="translate(0.5,440.5)"><path class="background" aria-hidden="true" d="M0,0h0v0h0Z" pointer-events="none"/><g><g class="mark-rule role-axis-grid" pointer-events="none"><line transform="translate(30,-440)" x2="0" y2="440" stroke="#ddd" stroke-width="1" opacity="1"/><line transform="translate(83,-440)" x2="0" y2="440" stroke="#ddd" stroke-width="1" opacity="1"/><line transform="translate(135,-440)" x2="0" y2="440" stroke="#ddd" stroke-width="1" opacity="1"/><line transform="translate(188,-440)" x2="0" y2="440" stroke="#ddd" stroke-width="1" opacity="1"/><line transform="translate(240,-440)" x2="0" y2="440" stroke="#ddd" stroke-width="1" opacity="1"/><line transform="translate(293,-440)" x2="0" y2="440" stroke="#ddd" stroke-width="1" opacity="1"/><line transform="translate(345,-440)" x2="0" y2="440" stroke="#ddd" stroke-width="1" opacity="1"/><line transform="translate(398,-440)" x2="0" y2="440" stroke="#ddd" stroke-width="1" opacity="1"/><line transform="translate(450,-440)" x2="0" y2="440" stroke="#ddd" stroke-width="1" opacity="1"/><line transform="translate(503,-440)" x2="0" y2="440" stroke="#ddd" stroke-width="1" opacity="1"/><line transform="translate(555,-440)" x2="0" y2="440" stroke="#ddd" stroke-width="1" opacity="1"/><line transform="translate(608,-440)" x2="0" y2="440" stroke="#ddd" stroke-width="1" opacity="1"/><line transform="translate(660,-440)" x2="0" y2="440" stroke="#ddd" stroke-width="1" opacity="1"/><line transform="translate(713,-440)" x2="0" y2="440" stroke="#ddd" stroke-width="1" opacity="1"/><line transform="translate(765,-440)" x2="0" y2="440" stroke="#ddd" stroke-width="1" opacity="1"/><line transform="translate(818,-440)" x2="0" y2="440" stroke="#ddd" stroke-width="1" opacity="1"/><line transform="translate(870,-440)" x2="0" y2="440" stroke="#ddd" stroke-width="1" opacity="1"/></g></g><path class="foreground" aria-hidden="true" d="" pointer-events="none" display="none"/></g></g><g class="mark-group role-axis" aria-hidden="true"><g transform="translate(0.5,0.5)"><path class="background" aria-hidden="true" d="M0,0h0v0h0Z" pointer-events="none"/><g><g class="mark-rule role-axis-grid" pointer-events="none"><line transform="translate(0,425)" x2="900" y2="0" stroke="#ddd" stroke-width="1" opacity="1"/><line transform="translate(0,402)" x2="900" y2="0" stroke="#ddd" stroke-width="1" opacity="1"/><line transform="translate(0,252)" x2="900" y2="0" stroke="#ddd" stroke-width="1" opacity="1"/><line transform="translate(0,164)" x2="900" y2="0" stroke="#ddd" stroke-width="1" opacity="1"/><line transform="translate(0,102)" x2="900" y2="0" stroke="#ddd" stroke-width="1" opacity="1"/><line transform="translate(0,54)" x2="900" y2="0" stroke="#ddd" stroke-width="1" opacity="1"/><line transform="translate(0,15)" x2="900" y2="0" stroke="#ddd" stroke-width="1" opacity="1"/></g></g><path class="foreground" aria-hidden="true" d="" pointer-events="none" display="none"/></g></g><g class="mark-group role-axis" role="graphics-symbol" aria-roledescription="axis" aria-label="X-axis titled 'date' for a time scale with values from Wednesday, 25 February 2026, 12:00:00 AM to Thursday, 25 June 2026, 12:00:00 AM"><g transform="translate(0.5,440.5)"><path class="background" aria-hidden="true" d="M0,0h0v0h0Z" pointer-events="none"/><g><g class="mark-rule role-axis-tick" pointer-events="none"><line transform="translate(30,0)" x2="0" y2="5" stroke="#888" stroke-width="1" opacity="1"/><line transform="translate(83,0)" x2="0" y2="5" stroke="#888" stroke-width="1" opacity="1"/><line transform="translate(135,0)" x2="0" y2="5" stroke="#888" stroke-width="1" opacity="1"/><line transform="translate(188,0)" x2="0" y2="5" stroke="#888" stroke-width="1" opacity="1"/><line transform="translate(240,0)" x2="0" y2="5" stroke="#888" stroke-width="1" opacity="1"/><line transform="translate(293,0)" x2="0" y2="5" stroke="#888" stroke-width="1" opacity="1"/><line transform="translate(345,0)" x2="0" y2="5" stroke="#888" stroke-width="1" opacity="1"/><line transform="translate(398,0)" x2="0" y2="5" stroke="#888" stroke-width="1" opacity="1"/><line transform="translate(450,0)" x2="0" y2="5" stroke="#888" stroke-width="1" opacity="1"/><line transform="translate(503,0)" x2="0" y2="5" stroke="#888" stroke-width="1" opacity="1"/><line transform="translate(555,0)" x2="0" y2="5" stroke="#888" stroke-width="1" opacity="1"/><line transform="translate(608,0)" x2="0" y2="5" stroke="#888" stroke-width="1" opacity="1"/><line transform="translate(660,0)" x2="0" y2="5" stroke="#888" stroke-width="1" opacity="1"/><line transform="translate(713,0)" x2="0" y2="5" stroke="#888" stroke-width="1" opacity="1"/><line transform="translate(765,0)" x2="0" y2="5" stroke="#888" stroke-width="1" opacity="1"/><line transform="translate(818,0)" x2="0" y2="5" stroke="#888" stroke-width="1" opacity="1"/><line transform="translate(870,0)" x2="0" y2="5" stroke="#888" stroke-width="1" opacity="1"/></g><g class="mark-text role-axis-label" pointer-events="none"><text text-anchor="middle" transform="translate(30,15)" font-family="sans-serif" font-size="10px" fill="#000" opacity="1">March</text><text text-anchor="middle" transform="translate(82.5,15)" font-family="sans-serif" font-size="10px" fill="#000" opacity="1">Mar 08</text><text text-anchor="middle" transform="translate(135,15)" font-family="sans-serif" font-size="10px" fill="#000" opacity="1">Mar 15</text><text text-anchor="middle" transform="translate(187.5,15)" font-family="sans-serif" font-size="10px" fill="#000" opacity="1">Mar 22</text><text text-anchor="middle" transform="translate(240,15)" font-family="sans-serif" font-size="10px" fill="#000" opacity="1">Mar 29</text><text text-anchor="middle" transform="translate(292.5,15)" font-family="sans-serif" font-size="10px" fill="#000" opacity="1">Apr 05</text><text text-anchor="middle" transform="translate(345,15)" font-family="sans-serif" font-size="10px" fill="#000" opacity="1">Apr 12</text><text text-anchor="middle" transform="translate(397.5,15)" font-family="sans-serif" font-size="10px" fill="#000" opacity="1">Apr 19</text><text text-anchor="middle" transform="translate(450,15)" font-family="sans-serif" font-size="10px" fill="#000" opacity="1">Apr 26</text><text text-anchor="middle" transform="translate(502.5,15)" font-family="sans-serif" font-size="10px" fill="#000" opacity="1">May 03</text><text text-anchor="middle" transform="translate(555,15)" font-family="sans-serif" font-size="10px" fill="#000" opacity="1">May 10</text><text text-anchor="middle" transform="translate(607.5,15)" font-family="sans-serif" font-size="10px" fill="#000" opacity="1">May 17</text><text text-anchor="middle" transform="translate(660,15)" font-family="sans-serif" font-size="10px" fill="#000" opacity="1">May 24</text><text text-anchor="middle" transform="translate(712.5,15)" font-family="sans-serif" font-size="10px" fill="#000" opacity="1">May 31</text><text text-anchor="middle" transform="translate(765,15)" font-family="sans-serif" font-size="10px" fill="#000" opacity="1">Jun 07</text><text text-anchor="middle" transform="translate(817.5,15)" font-family="sans-serif" font-size="10px" fill="#000" opacity="1">Jun 14</text><text text-anchor="middle" transform="translate(870,15)" font-family="sans-serif" font-size="10px" fill="#000" opacity="1">Jun 21</text></g><g class="mark-rule role-axis-domain" pointer-events="none"><line transform="translate(0,0)" x2="900" y2="0" stroke="#888" stroke-width="1" opacity="1"/></g><g class="mark-text role-axis-title" pointer-events="none"><text text-anchor="middle" transform="translate(450,30)" font-family="sans-serif" font-size="11px" font-weight="bold" fill="#000" opacity="1">date</text></g></g><path class="foreground" aria-hidden="true" d="" pointer-events="none" display="none"/></g></g><g class="mark-group role-axis" role="graphics-symbol" aria-roledescription="axis" aria-label="Y-axis titled 'equity (NT$)' for a log scale with values from 83,889,135.3442 to 641,734,440.736"><g transform="translate(0.5,0.5)"><path class="background" aria-hidden="true" d="M0,0h0v0h0Z" pointer-events="none"/><g><g class="mark-rule role-axis-tick" pointer-events="none"><line transform="translate(0,425)" x2="-5" y2="0" stroke="#888" stroke-width="1" opacity="1"/><line transform="translate(0,402)" x2="-5" y2="0" stroke="#888" stroke-width="1" opacity="1"/><line transform="translate(0,252)" x2="-5" y2="0" stroke="#888" stroke-width="1" opacity="1"/><line transform="translate(0,164)" x2="-5" y2="0" stroke="#888" stroke-width="1" opacity="1"/><line transform="translate(0,102)" x2="-5" y2="0" stroke="#888" stroke-width="1" opacity="1"/><line transform="translate(0,54)" x2="-5" y2="0" stroke="#888" stroke-width="1" opacity="1"/><line transform="translate(0,15)" x2="-5" y2="0" stroke="#888" stroke-width="1" opacity="1"/></g><g class="mark-text role-axis-label" pointer-events="none"><text text-anchor="end" transform="translate(-7,427.7946655075359)" font-family="sans-serif" font-size="10px" fill="#000" opacity="1">90,000,000</text><text text-anchor="end" transform="translate(-7,405.01041350130316)" font-family="sans-serif" font-size="10px" fill="#000" opacity="1">100,000,000</text><text text-anchor="end" transform="translate(-7,255.11706929466766)" font-family="sans-serif" font-size="10px" fill="#000" opacity="1">200,000,000</text><text text-anchor="end" transform="translate(-7,167.43508382609707)" font-family="sans-serif" font-size="10px" fill="#000" opacity="1">300,000,000</text><text text-anchor="end" transform="translate(-7,105.22372508803221)" font-family="sans-serif" font-size="10px" fill="#000" opacity="1">400,000,000</text><text text-anchor="end" transform="translate(-7,56.96884635129371)" font-family="sans-serif" font-size="10px" fill="#000" opacity="1">500,000,000</text><text text-anchor="end" transform="translate(-7,17.54173961946081)" font-family="sans-serif" font-size="10px" fill="#000" opacity="1">600,000,000</text></g><g class="mark-rule role-axis-domain" pointer-events="none"><line transform="translate(0,440)" x2="0" y2="-440" stroke="#888" stroke-width="1" opacity="1"/></g><g class="mark-text role-axis-title" pointer-events="none"><text text-anchor="middle" transform="translate(-66.6103515625,220) rotate(-90) translate(0,-2)" font-family="sans-serif" font-size="11px" font-weight="bold" fill="#000" opacity="1">equity (NT$)</text></g></g><path class="foreground" aria-hidden="true" d="" pointer-events="none" display="none"/></g></g><g class="mark-group role-scope pathgroup" role="graphics-object" aria-roledescription="group mark container"><g transform="translate(0,0)"><path class="background" aria-hidden="true" d="M0,0h900v440h-900Z"/><g><g class="mark-line role-mark marks" role="graphics-object" aria-roledescription="line mark container"><path aria-label="date: Feb 25, 2026; equity (NT$): 99804781.5675; series: honest" role="graphics-symbol" aria-roledescription="line mark" d="M0,402.433L7.5,393.167L37.5,386.563L45,394.324L52.5,412.19L60,413.296L67.5,412.509L90,428.908L97.5,425.159L105,409.787L112.5,406.272L120,397.026L142.5,387.863L150,381.358L157.5,374.927L165,369.863L172.5,370.73L195,382.768L202.5,389.602L210,378.252L217.5,383.028L225,383.296L247.5,382.909L255,385.198L262.5,383.057L270,383.505L307.5,381.985L315,379.963L322.5,380.804L330,378.925L352.5,377.637L360,377.164L367.5,376.237L375,375.41L382.5,374.093L405,373.943L412.5,371.816L420,371.762L427.5,376.29L435,379.881L457.5,392.471L465,387.593L472.5,383.365L480,378.17L510,368.328L517.5,367.406L525,369.399L532.5,367.534L540,376.145L562.5,374.364L570,367.595L577.5,368.593L585,369.414L592.5,370.543L615,370.565L622.5,379.1L630,379.506L637.5,378.718L645,372.672L667.5,366.754L675,363.041L682.5,362.095L690,360.258L697.5,355.971L720,354.688L727.5,354.687L735,355.95L742.5,359.69L750,360.29L772.5,364.703L780,360.236L787.5,363.506L795,360.612L802.5,357.901L825,350.996L832.5,351.958L840,343.7L847.5,339.431L877.5,335.335L885,341.925L892.5,339.238L900,341.425" stroke="#e45756" stroke-width="2"/></g></g><path class="foreground" aria-hidden="true" d="" display="none"/></g><g transform="translate(0,0)"><path class="background" aria-hidden="true" d="M0,0h900v440h-900Z"/><g><g class="mark-line role-mark marks" role="graphics-object" aria-roledescription="line mark container"><path aria-label="date: Feb 25, 2026; equity (NT$): 105857806.467; series: exploit" role="graphics-symbol" aria-roledescription="line mark" d="M0,389.7L7.5,380.335L37.5,368.341L45,363.396L52.5,369.182L60,363.929L67.5,355.52L90,368.026L97.5,363.078L105,352.256L112.5,345.463L120,341.554L142.5,334.226L150,324.433L157.5,314.353L165,308.552L172.5,307.875L195,316.613L202.5,324.039L210,314.861L217.5,312.378L225,309.367L247.5,305.704L255,309.411L262.5,299.747L270,289.866L307.5,279.484L315,269.511L322.5,261.382L330,249.533L352.5,244.873L360,240.637L367.5,237.59L375,231.848L382.5,222.671L405,218.374L412.5,210.1L420,207.316L427.5,205.606L435,198.591L457.5,198.372L465,187.947L472.5,178.22L480,170.253L510,155.735L517.5,146.05L525,147.76L532.5,137.988L540,136.36L562.5,135.579L570,132.707L577.5,129.569L585,125.916L592.5,124.977L615,122.667L622.5,121.984L630,118.013L637.5,114.92L645,107.057L667.5,96.125L675,90.003L682.5,83.442L690,82.646L697.5,73.8L720,68.852L727.5,68.897L735,66.171L742.5,66.51L750,64.535L772.5,74.381L780,63.256L787.5,65.817L795,59.875L802.5,56.159L825,44.668L832.5,41.232L840,28.512L847.5,15.531L877.5,11.143L885,17.636L892.5,10.551L900,11.011" stroke="#f58518" stroke-width="2"/></g></g><path class="foreground" aria-hidden="true" d="" display="none"/></g><g transform="translate(0,0)"><path class="background" aria-hidden="true" d="M0,0h900v440h-900Z"/><g><g class="mark-line role-mark marks" role="graphics-object" aria-roledescription="line mark container"><path aria-label="date: Feb 25, 2026; equity (NT$): 100000000; series: baseline" role="graphics-symbol" aria-roledescription="line mark" d="M0,402.01L7.5,400.288L37.5,400.521L45,403.326L52.5,411.183L60,407.089L67.5,405.898L90,413.84L97.5,411.121L105,406.325L112.5,406.451L120,406.108L142.5,404.867L150,402.697L157.5,400.788L165,401.747L172.5,401.947L195,406.331L202.5,407.283L210,403.614L217.5,404.469L225,404.054L247.5,406.035L255,410.614L262.5,406.283L270,408.108L307.5,407.039L315,402.397L322.5,401.903L330,400.256L352.5,398.092L360,396.597L367.5,395.237L375,393.103L382.5,391.374L405,389.267L412.5,387.279L420,385.478L427.5,390.46L435,391.162L457.5,393.14L465,391.075L472.5,390.469L480,390.347L510,387.416L517.5,384.721L525,385.03L532.5,383.079L540,384.589L562.5,382.436L570,382.003L577.5,383.27L585,383.386L592.5,385.892L615,385.27L622.5,387.014L630,386.635L637.5,381.627L645,377.658L667.5,374.421L675,373.589L682.5,374.309L690,375.586L697.5,372.076L720,369.381L727.5,369.629L735,366.848L742.5,368.058L750,369.818L772.5,377.085L780,372.822L787.5,377.748L795,378.007L802.5,374.727L825,370.822L832.5,371.706L840,369.28L847.5,366.181L877.5,363.57L885,366.752L892.5,366.96L900,365.848" stroke="#4c78a8" stroke-width="2"/></g></g><path class="foreground" aria-hidden="true" d="" display="none"/></g></g><g class="mark-group role-legend" role="graphics-symbol" aria-roledescription="legend" aria-label="Symbol legend for stroke color with 3 values: baseline, exploit, honest"><g transform="translate(0,-29)"><path class="background" aria-hidden="true" d="M0,0h168v11h-168Z" pointer-events="none"/><g><g class="mark-group role-legend-entry"><g transform="translate(0,0)"><path class="background" aria-hidden="true" d="M0,0h0v0h0Z" pointer-events="none"/><g><g class="mark-group role-scope" role="graphics-object" aria-roledescription="group mark container"><g transform="translate(0,0)"><path class="background" aria-hidden="true" d="M0,0h53.2509765625v11h-53.2509765625Z" pointer-events="none" opacity="1"/><g><g class="mark-symbol role-legend-symbol" pointer-events="none"><path transform="translate(6,6)" d="M-5,0L5,0" stroke="#4c78a8" stroke-width="1.5" opacity="1"/></g><g class="mark-text role-legend-label" pointer-events="none"><text text-anchor="start" transform="translate(16,9)" font-family="sans-serif" font-size="10px" fill="#000" opacity="1">baseline</text></g></g><path class="foreground" aria-hidden="true" d="" pointer-events="none" display="none"/></g><g transform="translate(65,0)"><path class="background" aria-hidden="true" d="M0,0h44.90625v11h-44.90625Z" pointer-events="none" opacity="1"/><g><g class="mark-symbol role-legend-symbol" pointer-events="none"><path transform="translate(6,6)" d="M-5,0L5,0" stroke="#f58518" stroke-width="1.5" opacity="1"/></g><g class="mark-text role-legend-label" pointer-events="none"><text text-anchor="start" transform="translate(16,9)" font-family="sans-serif" font-size="10px" fill="#000" opacity="1">exploit</text></g></g><path class="foreground" aria-hidden="true" d="" pointer-events="none" display="none"/></g><g transform="translate(121,0)"><path class="background" aria-hidden="true" d="M0,0h46.0244140625v11h-46.0244140625Z" pointer-events="none" opacity="1"/><g><g class="mark-symbol role-legend-symbol" pointer-events="none"><path transform="translate(6,6)" d="M-5,0L5,0" stroke="#e45756" stroke-width="1.5" opacity="1"/></g><g class="mark-text role-legend-label" pointer-events="none"><text text-anchor="start" transform="translate(16,9)" font-family="sans-serif" font-size="10px" fill="#000" opacity="1">honest</text></g></g><path class="foreground" aria-hidden="true" d="" pointer-events="none" display="none"/></g></g></g><path class="foreground" aria-hidden="true" d="" pointer-events="none" display="none"/></g></g></g><path class="foreground" aria-hidden="true" d="" pointer-events="none" display="none"/></g></g><g class="mark-group role-title"><g transform="translate(450,-46)"><path class="background" aria-hidden="true" d="M0,0h0v0h0Z" pointer-events="none"/><g><g class="mark-text role-title-text" role="graphics-symbol" aria-roledescription="title" aria-label="Title text 'Backtest equity by fill rule vs equal-weight buy-and-hold'" pointer-events="none"><text text-anchor="middle" transform="translate(0,10)" font-family="sans-serif" font-size="13px" font-weight="bold" fill="#000" opacity="1">Backtest equity by fill rule vs equal-weight buy-and-hold</text></g></g><path class="foreground" aria-hidden="true" d="" pointer-events="none" display="none"/></g></g></g><path class="foreground" aria-hidden="true" d="" display="none"/></g></g></g></svg>